<?xml version="1.0" standalone="no"?>
<!DOCTYPE svg PUBLIC "-//W3C//DTD SVG 1.1//EN" "http://www.w3.org/Graphics/SVG/1.1/DTD/svg11.dtd">
<svg version="1.1" width="1200" height="406" onload="init(evt)" viewBox="0 0 1200 406" xmlns="http://www.w3.org/2000/svg" xmlns:xlink="http://www.w3.org/1999/xlink">
<!-- Flame graph stack visualization. See https://github.com/brendangregg/FlameGraph for latest version, and http://www.brendangregg.com/flamegraphs.html for examples. -->
<!-- NOTES:  -->
<defs>
	<linearGradient id="background" y1="0" y2="1" x1="0" x2="0" >
		<stop stop-color="#eeeeee" offset="5%" />
		<stop stop-color="#eeeeb0" offset="95%" />
	</linearGradient>
</defs>
<style type="text/css">
	text { font-family:Verdana; font-size:12px; fill:rgb(0,0,0); }
	#search, #ignorecase { opacity:0.1; cursor:pointer; }
	#search:hover, #search.show, #ignorecase:hover, #ignorecase.show { opacity:1; }
	#subtitle { text-anchor:middle; font-color:rgb(160,160,160); }
	#title { text-anchor:middle; font-size:17px}
	#unzoom { cursor:pointer; }
	#frames > *:hover { stroke:black; stroke-width:0.5; cursor:pointer; }
	.hide { display:none; }
	.parent { opacity:0.5; }
</style>
<script type="text/ecmascript">
<![CDATA[
	"use strict";
	var details, searchbtn, unzoombtn, matchedtxt, svg, searching, currentSearchTerm, ignorecase, ignorecaseBtn;
	function init(evt) {
		details = document.getElementById("details").firstChild;
		searchbtn = document.getElementById("search");
		ignorecaseBtn = document.getElementById("ignorecase");
		unzoombtn = document.getElementById("unzoom");
		matchedtxt = document.getElementById("matched");
		svg = document.getElementsByTagName("svg")[0];
		searching = 0;
		currentSearchTerm = null;

		// use GET parameters to restore a flamegraphs state.
		var params = get_params();
		if (params.x && params.y)
			zoom(find_group(document.querySelector('[x="' + params.x + '"][y="' + params.y + '"]')));
                if (params.s) search(params.s);
	}

	// event listeners
	window.addEventListener("click", function(e) {
		var target = find_group(e.target);
		if (target) {
			if (target.nodeName == "a") {
				if (e.ctrlKey === false) return;
				e.preventDefault();
			}
			if (target.classList.contains("parent")) unzoom(true);
			zoom(target);
			if (!document.querySelector('.parent')) {
				// we have basically done a clearzoom so clear the url
				var params = get_params();
				if (params.x) delete params.x;
				if (params.y) delete params.y;
				history.replaceState(null, null, parse_params(params));
				unzoombtn.classList.add("hide");
				return;
			}

			// set parameters for zoom state
			var el = target.querySelector("rect");
			if (el && el.attributes && el.attributes.y && el.attributes._orig_x) {
				var params = get_params()
				params.x = el.attributes._orig_x.value;
				params.y = el.attributes.y.value;
				history.replaceState(null, null, parse_params(params));
			}
		}
		else if (e.target.id == "unzoom") clearzoom();
		else if (e.target.id == "search") search_prompt();
		else if (e.target.id == "ignorecase") toggle_ignorecase();
	}, false)

	// mouse-over for info
	// show
	window.addEventListener("mouseover", function(e) {
		var target = find_group(e.target);
		if (target) details.nodeValue = "Function: " + g_to_text(target);
	}, false)

	// clear
	window.addEventListener("mouseout", function(e) {
		var target = find_group(e.target);
		if (target) details.nodeValue = ' ';
	}, false)

	// ctrl-F for search
	// ctrl-I to toggle case-sensitive search
	window.addEventListener("keydown",function (e) {
		if (e.keyCode === 114 || (e.ctrlKey && e.keyCode === 70)) {
			e.preventDefault();
			search_prompt();
		}
		else if (e.ctrlKey && e.keyCode === 73) {
			e.preventDefault();
			toggle_ignorecase();
		}
	}, false)

	// functions
	function get_params() {
		var params = {};
		var paramsarr = window.location.search.substr(1).split('&');
		for (var i = 0; i < paramsarr.length; ++i) {
			var tmp = paramsarr[i].split("=");
			if (!tmp[0] || !tmp[1]) continue;
			params[tmp[0]]  = decodeURIComponent(tmp[1]);
		}
		return params;
	}
	function parse_params(params) {
		var uri = "?";
		for (var key in params) {
			uri += key + '=' + encodeURIComponent(params[key]) + '&';
		}
		if (uri.slice(-1) == "&")
			uri = uri.substring(0, uri.length - 1);
		if (uri == '?')
			uri = window.location.href.split('?')[0];
		return uri;
	}
	function find_child(node, selector) {
		var children = node.querySelectorAll(selector);
		if (children.length) return children[0];
	}
	function find_group(node) {
		var parent = node.parentElement;
		if (!parent) return;
		if (parent.id == "frames") return node;
		return find_group(parent);
	}
	function orig_save(e, attr, val) {
		if (e.attributes["_orig_" + attr] != undefined) return;
		if (e.attributes[attr] == undefined) return;
		if (val == undefined) val = e.attributes[attr].value;
		e.setAttribute("_orig_" + attr, val);
	}
	function orig_load(e, attr) {
		if (e.attributes["_orig_"+attr] == undefined) return;
		e.attributes[attr].value = e.attributes["_orig_" + attr].value;
		e.removeAttribute("_orig_"+attr);
	}
	function g_to_text(e) {
		var text = find_child(e, "title").firstChild.nodeValue;
		return (text)
	}
	function g_to_func(e) {
		var func = g_to_text(e);
		// if there's any manipulation we want to do to the function
		// name before it's searched, do it here before returning.
		return (func);
	}
	function update_text(e) {
		var r = find_child(e, "rect");
		var t = find_child(e, "text");
		var w = parseFloat(r.attributes.width.value) -3;
		var txt = find_child(e, "title").textContent.replace(/\([^(]*\)$/,"");
		t.attributes.x.value = parseFloat(r.attributes.x.value) + 3;

		// Smaller than this size won't fit anything
		if (w < 2 * 12 * 0.59) {
			t.textContent = "";
			return;
		}

		t.textContent = txt;
		var sl = t.getSubStringLength(0, txt.length);
		// check if only whitespace or if we can fit the entire string into width w
		if (/^ *$/.test(txt) || sl < w)
			return;

		// this isn't perfect, but gives a good starting point
		// and avoids calling getSubStringLength too often
		var start = Math.floor((w/sl) * txt.length);
		for (var x = start; x > 0; x = x-2) {
			if (t.getSubStringLength(0, x + 2) <= w) {
				t.textContent = txt.substring(0, x) + "..";
				return;
			}
		}
		t.textContent = "";
	}

	// zoom
	function zoom_reset(e) {
		if (e.attributes != undefined) {
			orig_load(e, "x");
			orig_load(e, "width");
		}
		if (e.childNodes == undefined) return;
		for (var i = 0, c = e.childNodes; i < c.length; i++) {
			zoom_reset(c[i]);
		}
	}
	function zoom_child(e, x, ratio) {
		if (e.attributes != undefined) {
			if (e.attributes.x != undefined) {
				orig_save(e, "x");
				e.attributes.x.value = (parseFloat(e.attributes.x.value) - x - 10) * ratio + 10;
				if (e.tagName == "text")
					e.attributes.x.value = find_child(e.parentNode, "rect[x]").attributes.x.value + 3;
			}
			if (e.attributes.width != undefined) {
				orig_save(e, "width");
				e.attributes.width.value = parseFloat(e.attributes.width.value) * ratio;
			}
		}

		if (e.childNodes == undefined) return;
		for (var i = 0, c = e.childNodes; i < c.length; i++) {
			zoom_child(c[i], x - 10, ratio);
		}
	}
	function zoom_parent(e) {
		if (e.attributes) {
			if (e.attributes.x != undefined) {
				orig_save(e, "x");
				e.attributes.x.value = 10;
			}
			if (e.attributes.width != undefined) {
				orig_save(e, "width");
				e.attributes.width.value = parseInt(svg.width.baseVal.value) - (10 * 2);
			}
		}
		if (e.childNodes == undefined) return;
		for (var i = 0, c = e.childNodes; i < c.length; i++) {
			zoom_parent(c[i]);
		}
	}
	function zoom(node) {
		var attr = find_child(node, "rect").attributes;
		var width = parseFloat(attr.width.value);
		var xmin = parseFloat(attr.x.value);
		var xmax = parseFloat(xmin + width);
		var ymin = parseFloat(attr.y.value);
		var ratio = (svg.width.baseVal.value - 2 * 10) / width;

		// XXX: Workaround for JavaScript float issues (fix me)
		var fudge = 0.0001;

		unzoombtn.classList.remove("hide");

		var el = document.getElementById("frames").children;
		for (var i = 0; i < el.length; i++) {
			var e = el[i];
			var a = find_child(e, "rect").attributes;
			var ex = parseFloat(a.x.value);
			var ew = parseFloat(a.width.value);
			var upstack;
			// Is it an ancestor
			if (0 == 0) {
				upstack = parseFloat(a.y.value) > ymin;
			} else {
				upstack = parseFloat(a.y.value) < ymin;
			}
			if (upstack) {
				// Direct ancestor
				if (ex <= xmin && (ex+ew+fudge) >= xmax) {
					e.classList.add("parent");
					zoom_parent(e);
					update_text(e);
				}
				// not in current path
				else
					e.classList.add("hide");
			}
			// Children maybe
			else {
				// no common path
				if (ex < xmin || ex + fudge >= xmax) {
					e.classList.add("hide");
				}
				else {
					zoom_child(e, xmin, ratio);
					update_text(e);
				}
			}
		}
		search();
	}
	function unzoom(dont_update_text) {
		unzoombtn.classList.add("hide");
		var el = document.getElementById("frames").children;
		for(var i = 0; i < el.length; i++) {
			el[i].classList.remove("parent");
			el[i].classList.remove("hide");
			zoom_reset(el[i]);
			if(!dont_update_text) update_text(el[i]);
		}
		search();
	}
	function clearzoom() {
		unzoom();

		// remove zoom state
		var params = get_params();
		if (params.x) delete params.x;
		if (params.y) delete params.y;
		history.replaceState(null, null, parse_params(params));
	}

	// search
	function toggle_ignorecase() {
		ignorecase = !ignorecase;
		if (ignorecase) {
			ignorecaseBtn.classList.add("show");
		} else {
			ignorecaseBtn.classList.remove("show");
		}
		reset_search();
		search();
	}
	function reset_search() {
		var el = document.querySelectorAll("#frames rect");
		for (var i = 0; i < el.length; i++) {
			orig_load(el[i], "fill")
		}
		var params = get_params();
		delete params.s;
		history.replaceState(null, null, parse_params(params));
	}
	function search_prompt() {
		if (!searching) {
			var term = prompt("Enter a search term (regexp " +
			    "allowed, eg: ^ext4_)"
			    + (ignorecase ? ", ignoring case" : "")
			    + "\nPress Ctrl-i to toggle case sensitivity", "");
			if (term != null) search(term);
		} else {
			reset_search();
			searching = 0;
			currentSearchTerm = null;
			searchbtn.classList.remove("show");
			searchbtn.firstChild.nodeValue = "Search"
			matchedtxt.classList.add("hide");
			matchedtxt.firstChild.nodeValue = ""
		}
	}
	function search(term) {
		if (term) currentSearchTerm = term;

		var re = new RegExp(currentSearchTerm, ignorecase ? 'i' : '');
		var el = document.getElementById("frames").children;
		var matches = new Object();
		var maxwidth = 0;
		for (var i = 0; i < el.length; i++) {
			var e = el[i];
			var func = g_to_func(e);
			var rect = find_child(e, "rect");
			if (func == null || rect == null)
				continue;

			// Save max width. Only works as we have a root frame
			var w = parseFloat(rect.attributes.width.value);
			if (w > maxwidth)
				maxwidth = w;

			if (func.match(re)) {
				// highlight
				var x = parseFloat(rect.attributes.x.value);
				orig_save(rect, "fill");
				rect.attributes.fill.value = "rgb(230,0,230)";

				// remember matches
				if (matches[x] == undefined) {
					matches[x] = w;
				} else {
					if (w > matches[x]) {
						// overwrite with parent
						matches[x] = w;
					}
				}
				searching = 1;
			}
		}
		if (!searching)
			return;
		var params = get_params();
		params.s = currentSearchTerm;
		history.replaceState(null, null, parse_params(params));

		searchbtn.classList.add("show");
		searchbtn.firstChild.nodeValue = "Reset Search";

		// calculate percent matched, excluding vertical overlap
		var count = 0;
		var lastx = -1;
		var lastw = 0;
		var keys = Array();
		for (k in matches) {
			if (matches.hasOwnProperty(k))
				keys.push(k);
		}
		// sort the matched frames by their x location
		// ascending, then width descending
		keys.sort(function(a, b){
			return a - b;
		});
		// Step through frames saving only the biggest bottom-up frames
		// thanks to the sort order. This relies on the tree property
		// where children are always smaller than their parents.
		var fudge = 0.0001;	// JavaScript floating point
		for (var k in keys) {
			var x = parseFloat(keys[k]);
			var w = matches[keys[k]];
			if (x >= lastx + lastw - fudge) {
				count += w;
				lastx = x;
				lastw = w;
			}
		}
		// display matched percent
		matchedtxt.classList.remove("hide");
		var pct = 100 * count / maxwidth;
		if (pct != 100) pct = pct.toFixed(1)
		matchedtxt.firstChild.nodeValue = "Matched: " + pct + "%";
	}
]]>
</script>
<rect x="0.0" y="0" width="1200.0" height="406.0" fill="url(#background)"  />
<text id="title" x="600.00" y="24" >Flame Graph</text>
<text id="details" x="10.00" y="389" > </text>
<text id="unzoom" x="10.00" y="24" class="hide">Reset Zoom</text>
<text id="search" x="1090.00" y="24" >Search</text>
<text id="ignorecase" x="1174.00" y="24" >ic</text>
<text id="matched" x="1090.00" y="389" > </text>
<g id="frames">
<g >
<title>[[kernel.kallsyms]] (1,000,000 samples, 0.02%)</title><rect x="12.0" y="213" width="0.2" height="15.0" fill="rgb(247,156,27)" rx="2" ry="2" />
<text  x="14.97" y="223.5" ></text>
</g>
<g >
<title>[[kernel.kallsyms]] (500,000 samples, 0.01%)</title><rect x="14.3" y="133" width="0.1" height="15.0" fill="rgb(223,188,28)" rx="2" ry="2" />
<text  x="17.31" y="143.5" ></text>
</g>
<g >
<title>[[kernel.kallsyms]] (6,500,000 samples, 0.11%)</title><rect x="1177.8" y="245" width="1.3" height="15.0" fill="rgb(242,204,0)" rx="2" ry="2" />
<text  x="1180.76" y="255.5" ></text>
</g>
<g >
<title>[[kernel.kallsyms]] (1,000,000 samples, 0.02%)</title><rect x="12.0" y="229" width="0.2" height="15.0" fill="rgb(243,7,44)" rx="2" ry="2" />
<text  x="14.97" y="239.5" ></text>
</g>
<g >
<title>xz (5,649,000,000 samples, 99.34%)</title><rect x="17.8" y="341" width="1172.2" height="15.0" fill="rgb(205,6,1)" rx="2" ry="2" />
<text  x="20.78" y="351.5" >xz</text>
</g>
<g >
<title>[[kernel.kallsyms]] (1,500,000 samples, 0.03%)</title><rect x="1189.7" y="117" width="0.3" height="15.0" fill="rgb(214,47,7)" rx="2" ry="2" />
<text  x="1192.69" y="127.5" ></text>
</g>
<g >
<title>[[kernel.kallsyms]] (2,000,000 samples, 0.04%)</title><rect x="1189.6" y="261" width="0.4" height="15.0" fill="rgb(226,34,1)" rx="2" ry="2" />
<text  x="1192.58" y="271.5" ></text>
</g>
<g >
<title>[[kernel.kallsyms]] (750,000 samples, 0.01%)</title><rect x="13.2" y="133" width="0.1" height="15.0" fill="rgb(207,71,7)" rx="2" ry="2" />
<text  x="16.16" y="143.5" ></text>
</g>
<g >
<title>[[kernel.kallsyms]] (3,750,000 samples, 0.07%)</title><rect x="1178.3" y="213" width="0.8" height="15.0" fill="rgb(229,56,48)" rx="2" ry="2" />
<text  x="1181.33" y="223.5" ></text>
</g>
<g >
<title>[[kernel.kallsyms]] (2,750,000 samples, 0.05%)</title><rect x="19.2" y="245" width="0.6" height="15.0" fill="rgb(206,181,32)" rx="2" ry="2" />
<text  x="22.23" y="255.5" ></text>
</g>
<g >
<title>[[kernel.kallsyms]] (1,750,000 samples, 0.03%)</title><rect x="19.4" y="149" width="0.4" height="15.0" fill="rgb(213,22,6)" rx="2" ry="2" />
<text  x="22.44" y="159.5" ></text>
</g>
<g >
<title>[[kernel.kallsyms]] (1,750,000 samples, 0.03%)</title><rect x="11.6" y="229" width="0.4" height="15.0" fill="rgb(208,171,2)" rx="2" ry="2" />
<text  x="14.61" y="239.5" ></text>
</g>
<g >
<title>[tar] (2,750,000 samples, 0.05%)</title><rect x="10.2" y="325" width="0.5" height="15.0" fill="rgb(238,159,17)" rx="2" ry="2" />
<text  x="13.16" y="335.5" ></text>
</g>
<g >
<title>[[kernel.kallsyms]] (3,500,000 samples, 0.06%)</title><rect x="1178.4" y="197" width="0.7" height="15.0" fill="rgb(212,125,33)" rx="2" ry="2" />
<text  x="1181.38" y="207.5" ></text>
</g>
<g >
<title>[[kernel.kallsyms]] (4,750,000 samples, 0.08%)</title><rect x="12.3" y="229" width="1.0" height="15.0" fill="rgb(207,214,35)" rx="2" ry="2" />
<text  x="15.33" y="239.5" ></text>
</g>
<g >
<title>[[kernel.kallsyms]] (26,750,000 samples, 0.47%)</title><rect x="1179.3" y="213" width="5.5" height="15.0" fill="rgb(214,24,44)" rx="2" ry="2" />
<text  x="1182.26" y="223.5" ></text>
</g>
<g >
<title>[[kernel.kallsyms]] (4,500,000 samples, 0.08%)</title><rect x="18.9" y="293" width="0.9" height="15.0" fill="rgb(232,67,45)" rx="2" ry="2" />
<text  x="21.87" y="303.5" ></text>
</g>
<g >
<title>[[kernel.kallsyms]] (3,500,000 samples, 0.06%)</title><rect x="17.8" y="293" width="0.7" height="15.0" fill="rgb(252,159,29)" rx="2" ry="2" />
<text  x="20.78" y="303.5" ></text>
</g>
<g >
<title>[[kernel.kallsyms]] (750,000 samples, 0.01%)</title><rect x="17.6" y="149" width="0.2" height="15.0" fill="rgb(210,164,2)" rx="2" ry="2" />
<text  x="20.63" y="159.5" ></text>
</g>
<g >
<title>[[kernel.kallsyms]] (3,500,000 samples, 0.06%)</title><rect x="13.7" y="261" width="0.7" height="15.0" fill="rgb(208,17,11)" rx="2" ry="2" />
<text  x="16.68" y="271.5" ></text>
</g>
<g >
<title>[[kernel.kallsyms]] (2,250,000 samples, 0.04%)</title><rect x="19.3" y="197" width="0.5" height="15.0" fill="rgb(247,1,43)" rx="2" ry="2" />
<text  x="22.34" y="207.5" ></text>
</g>
<g >
<title>[[kernel.kallsyms]] (1,250,000 samples, 0.02%)</title><rect x="13.3" y="213" width="0.3" height="15.0" fill="rgb(216,226,7)" rx="2" ry="2" />
<text  x="16.32" y="223.5" ></text>
</g>
<g >
<title>[[kernel.kallsyms]] (10,000,000 samples, 0.18%)</title><rect x="1032.4" y="213" width="2.1" height="15.0" fill="rgb(248,189,46)" rx="2" ry="2" />
<text  x="1035.45" y="223.5" ></text>
</g>
<g >
<title>fstatat64 (5,250,000 samples, 0.09%)</title><rect x="12.2" y="309" width="1.1" height="15.0" fill="rgb(232,183,18)" rx="2" ry="2" />
<text  x="15.23" y="319.5" ></text>
</g>
<g >
<title>[[kernel.kallsyms]] (750,000 samples, 0.01%)</title><rect x="13.2" y="149" width="0.1" height="15.0" fill="rgb(213,184,6)" rx="2" ry="2" />
<text  x="16.16" y="159.5" ></text>
</g>
<g >
<title>[[kernel.kallsyms]] (6,750,000 samples, 0.12%)</title><rect x="16.4" y="245" width="1.4" height="15.0" fill="rgb(215,217,10)" rx="2" ry="2" />
<text  x="19.38" y="255.5" ></text>
</g>
<g >
<title>[[kernel.kallsyms]] (2,000,000 samples, 0.04%)</title><rect x="1189.6" y="165" width="0.4" height="15.0" fill="rgb(252,46,47)" rx="2" ry="2" />
<text  x="1192.58" y="175.5" ></text>
</g>
<g >
<title>[[kernel.kallsyms]] (2,500,000 samples, 0.04%)</title><rect x="1178.6" y="101" width="0.5" height="15.0" fill="rgb(243,119,35)" rx="2" ry="2" />
<text  x="1181.59" y="111.5" ></text>
</g>
<g >
<title>[[kernel.kallsyms]] (8,000,000 samples, 0.14%)</title><rect x="1032.9" y="181" width="1.6" height="15.0" fill="rgb(240,170,1)" rx="2" ry="2" />
<text  x="1035.86" y="191.5" ></text>
</g>
<g >
<title>[[kernel.kallsyms]] (11,500,000 samples, 0.20%)</title><rect x="1032.1" y="245" width="2.4" height="15.0" fill="rgb(219,13,2)" rx="2" ry="2" />
<text  x="1035.14" y="255.5" ></text>
</g>
<g >
<title>[[kernel.kallsyms]] (6,500,000 samples, 0.11%)</title><rect x="1033.2" y="165" width="1.3" height="15.0" fill="rgb(242,119,24)" rx="2" ry="2" />
<text  x="1036.18" y="175.5" ></text>
</g>
<g >
<title>[[kernel.kallsyms]] (1,000,000 samples, 0.02%)</title><rect x="14.2" y="149" width="0.2" height="15.0" fill="rgb(209,15,42)" rx="2" ry="2" />
<text  x="17.20" y="159.5" ></text>
</g>
<g >
<title>[[kernel.kallsyms]] (1,000,000 samples, 0.02%)</title><rect x="1189.8" y="69" width="0.2" height="15.0" fill="rgb(245,229,24)" rx="2" ry="2" />
<text  x="1192.79" y="79.5" ></text>
</g>
<g >
<title>[[kernel.kallsyms]] (7,250,000 samples, 0.13%)</title><rect x="16.3" y="309" width="1.5" height="15.0" fill="rgb(205,211,23)" rx="2" ry="2" />
<text  x="19.28" y="319.5" ></text>
</g>
<g >
<title>[[kernel.kallsyms]] (3,500,000 samples, 0.06%)</title><rect x="17.8" y="213" width="0.7" height="15.0" fill="rgb(248,200,26)" rx="2" ry="2" />
<text  x="20.78" y="223.5" ></text>
</g>
<g >
<title>[[kernel.kallsyms]] (1,250,000 samples, 0.02%)</title><rect x="13.3" y="229" width="0.3" height="15.0" fill="rgb(241,8,32)" rx="2" ry="2" />
<text  x="16.32" y="239.5" ></text>
</g>
<g >
<title>[[kernel.kallsyms]] (1,000,000 samples, 0.02%)</title><rect x="12.0" y="197" width="0.2" height="15.0" fill="rgb(253,127,33)" rx="2" ry="2" />
<text  x="14.97" y="207.5" ></text>
</g>
<g >
<title>[[kernel.kallsyms]] (7,250,000 samples, 0.13%)</title><rect x="16.3" y="293" width="1.5" height="15.0" fill="rgb(232,127,5)" rx="2" ry="2" />
<text  x="19.28" y="303.5" ></text>
</g>
<g >
<title>[tar] (2,000,000 samples, 0.04%)</title><rect x="11.2" y="293" width="0.4" height="15.0" fill="rgb(208,179,37)" rx="2" ry="2" />
<text  x="14.19" y="303.5" ></text>
</g>
<g >
<title>[[kernel.kallsyms]] (27,250,000 samples, 0.48%)</title><rect x="1179.2" y="277" width="5.6" height="15.0" fill="rgb(251,191,42)" rx="2" ry="2" />
<text  x="1182.16" y="287.5" ></text>
</g>
<g >
<title>[[kernel.kallsyms]] (3,500,000 samples, 0.06%)</title><rect x="13.7" y="293" width="0.7" height="15.0" fill="rgb(246,12,45)" rx="2" ry="2" />
<text  x="16.68" y="303.5" ></text>
</g>
<g >
<title>[[kernel.kallsyms]] (1,750,000 samples, 0.03%)</title><rect x="11.6" y="261" width="0.4" height="15.0" fill="rgb(229,15,4)" rx="2" ry="2" />
<text  x="14.61" y="271.5" ></text>
</g>
<g >
<title>[[kernel.kallsyms]] (3,250,000 samples, 0.06%)</title><rect x="17.8" y="181" width="0.7" height="15.0" fill="rgb(240,124,0)" rx="2" ry="2" />
<text  x="20.83" y="191.5" ></text>
</g>
<g >
<title>[[kernel.kallsyms]] (1,250,000 samples, 0.02%)</title><rect x="13.3" y="293" width="0.3" height="15.0" fill="rgb(238,16,26)" rx="2" ry="2" />
<text  x="16.32" y="303.5" ></text>
</g>
<g >
<title>[[kernel.kallsyms]] (2,250,000 samples, 0.04%)</title><rect x="19.3" y="229" width="0.5" height="15.0" fill="rgb(227,42,39)" rx="2" ry="2" />
<text  x="22.34" y="239.5" ></text>
</g>
<g >
<title>[[kernel.kallsyms]] (6,750,000 samples, 0.12%)</title><rect x="14.6" y="213" width="1.4" height="15.0" fill="rgb(251,50,50)" rx="2" ry="2" />
<text  x="17.62" y="223.5" ></text>
</g>
<g >
<title>[[kernel.kallsyms]] (1,000,000 samples, 0.02%)</title><rect x="12.0" y="165" width="0.2" height="15.0" fill="rgb(241,135,35)" rx="2" ry="2" />
<text  x="14.97" y="175.5" ></text>
</g>
<g >
<title>[[kernel.kallsyms]] (3,500,000 samples, 0.06%)</title><rect x="17.8" y="325" width="0.7" height="15.0" fill="rgb(209,105,28)" rx="2" ry="2" />
<text  x="20.78" y="335.5" ></text>
</g>
<g >
<title>[[kernel.kallsyms]] (4,500,000 samples, 0.08%)</title><rect x="18.9" y="277" width="0.9" height="15.0" fill="rgb(205,57,10)" rx="2" ry="2" />
<text  x="21.87" y="287.5" ></text>
</g>
<g >
<title>[[kernel.kallsyms]] (6,000,000 samples, 0.11%)</title><rect x="16.5" y="229" width="1.3" height="15.0" fill="rgb(230,77,33)" rx="2" ry="2" />
<text  x="19.54" y="239.5" ></text>
</g>
<g >
<title>[liblzma.so.5.2.5] (550,000,000 samples, 9.67%)</title><rect x="1065.0" y="293" width="114.1" height="15.0" fill="rgb(211,161,15)" rx="2" ry="2" />
<text  x="1067.98" y="303.5" >[liblzma.so.5...</text>
</g>
<g >
<title>getdents64 (1,250,000 samples, 0.02%)</title><rect x="13.3" y="309" width="0.3" height="15.0" fill="rgb(224,94,24)" rx="2" ry="2" />
<text  x="16.32" y="319.5" ></text>
</g>
<g >
<title>[[kernel.kallsyms]] (3,250,000 samples, 0.06%)</title><rect x="13.7" y="213" width="0.7" height="15.0" fill="rgb(249,142,26)" rx="2" ry="2" />
<text  x="16.74" y="223.5" ></text>
</g>
<g >
<title>[[kernel.kallsyms]] (2,000,000 samples, 0.04%)</title><rect x="18.1" y="101" width="0.4" height="15.0" fill="rgb(209,164,33)" rx="2" ry="2" />
<text  x="21.09" y="111.5" ></text>
</g>
<g >
<title>all (5,686,500,000 samples, 100%)</title><rect x="10.0" y="357" width="1180.0" height="15.0" fill="rgb(225,163,2)" rx="2" ry="2" />
<text  x="13.00" y="367.5" ></text>
</g>
<g >
<title>[[kernel.kallsyms]] (1,750,000 samples, 0.03%)</title><rect x="11.6" y="245" width="0.4" height="15.0" fill="rgb(247,136,54)" rx="2" ry="2" />
<text  x="14.61" y="255.5" ></text>
</g>
<g >
<title>[[kernel.kallsyms]] (1,000,000 samples, 0.02%)</title><rect x="1189.8" y="53" width="0.2" height="15.0" fill="rgb(214,29,53)" rx="2" ry="2" />
<text  x="1192.79" y="63.5" ></text>
</g>
<g >
<title>[[kernel.kallsyms]] (1,500,000 samples, 0.03%)</title><rect x="11.7" y="197" width="0.3" height="15.0" fill="rgb(234,139,28)" rx="2" ry="2" />
<text  x="14.66" y="207.5" ></text>
</g>
<g >
<title>read (27,500,000 samples, 0.48%)</title><rect x="1179.1" y="293" width="5.7" height="15.0" fill="rgb(252,86,19)" rx="2" ry="2" />
<text  x="1182.11" y="303.5" ></text>
</g>
<g >
<title>[[kernel.kallsyms]] (750,000 samples, 0.01%)</title><rect x="13.4" y="165" width="0.2" height="15.0" fill="rgb(240,77,40)" rx="2" ry="2" />
<text  x="16.42" y="175.5" ></text>
</g>
<g >
<title>[[kernel.kallsyms]] (1,750,000 samples, 0.03%)</title><rect x="11.6" y="293" width="0.4" height="15.0" fill="rgb(246,212,17)" rx="2" ry="2" />
<text  x="14.61" y="303.5" ></text>
</g>
<g >
<title>[unknown] (749,250,000 samples, 13.18%)</title><rect x="1034.5" y="325" width="155.5" height="15.0" fill="rgb(224,135,0)" rx="2" ry="2" />
<text  x="1037.52" y="335.5" >[unknown]</text>
</g>
<g >
<title>[[kernel.kallsyms]] (6,000,000 samples, 0.11%)</title><rect x="1033.3" y="149" width="1.2" height="15.0" fill="rgb(207,75,17)" rx="2" ry="2" />
<text  x="1036.28" y="159.5" ></text>
</g>
<g >
<title>[[kernel.kallsyms]] (3,500,000 samples, 0.06%)</title><rect x="1178.4" y="149" width="0.7" height="15.0" fill="rgb(231,139,27)" rx="2" ry="2" />
<text  x="1181.38" y="159.5" ></text>
</g>
<g >
<title>[[kernel.kallsyms]] (5,750,000 samples, 0.10%)</title><rect x="16.6" y="213" width="1.2" height="15.0" fill="rgb(214,57,47)" rx="2" ry="2" />
<text  x="19.59" y="223.5" ></text>
</g>
<g >
<title>[[kernel.kallsyms]] (19,500,000 samples, 0.34%)</title><rect x="1030.5" y="309" width="4.0" height="15.0" fill="rgb(227,207,5)" rx="2" ry="2" />
<text  x="1033.48" y="319.5" ></text>
</g>
<g >
<title>[[kernel.kallsyms]] (2,000,000 samples, 0.04%)</title><rect x="1189.6" y="277" width="0.4" height="15.0" fill="rgb(237,78,19)" rx="2" ry="2" />
<text  x="1192.58" y="287.5" ></text>
</g>
<g >
<title>[[kernel.kallsyms]] (6,250,000 samples, 0.11%)</title><rect x="14.7" y="165" width="1.3" height="15.0" fill="rgb(234,156,38)" rx="2" ry="2" />
<text  x="17.72" y="175.5" ></text>
</g>
<g >
<title>[[kernel.kallsyms]] (7,750,000 samples, 0.14%)</title><rect x="14.4" y="293" width="1.6" height="15.0" fill="rgb(248,114,30)" rx="2" ry="2" />
<text  x="17.41" y="303.5" ></text>
</g>
<g >
<title>[[kernel.kallsyms]] (1,500,000 samples, 0.03%)</title><rect x="1189.7" y="133" width="0.3" height="15.0" fill="rgb(210,127,17)" rx="2" ry="2" />
<text  x="1192.69" y="143.5" ></text>
</g>
<g >
<title>[[kernel.kallsyms]] (3,500,000 samples, 0.06%)</title><rect x="1178.4" y="165" width="0.7" height="15.0" fill="rgb(236,93,49)" rx="2" ry="2" />
<text  x="1181.38" y="175.5" ></text>
</g>
<g >
<title>[unknown] (25,750,000 samples, 0.45%)</title><rect x="10.7" y="325" width="5.4" height="15.0" fill="rgb(230,32,29)" rx="2" ry="2" />
<text  x="13.73" y="335.5" ></text>
</g>
<g >
<title>[[kernel.kallsyms]] (26,000,000 samples, 0.46%)</title><rect x="1179.4" y="181" width="5.4" height="15.0" fill="rgb(227,188,3)" rx="2" ry="2" />
<text  x="1182.42" y="191.5" ></text>
</g>
<g >
<title>[[kernel.kallsyms]] (3,000,000 samples, 0.05%)</title><rect x="19.2" y="261" width="0.6" height="15.0" fill="rgb(220,8,54)" rx="2" ry="2" />
<text  x="22.18" y="271.5" ></text>
</g>
<g >
<title>[[kernel.kallsyms]] (2,250,000 samples, 0.04%)</title><rect x="12.9" y="165" width="0.4" height="15.0" fill="rgb(215,41,5)" rx="2" ry="2" />
<text  x="15.85" y="175.5" ></text>
</g>
<g >
<title>[[kernel.kallsyms]] (2,000,000 samples, 0.04%)</title><rect x="1189.6" y="229" width="0.4" height="15.0" fill="rgb(208,113,1)" rx="2" ry="2" />
<text  x="1192.58" y="239.5" ></text>
</g>
<g >
<title>[[kernel.kallsyms]] (2,000,000 samples, 0.04%)</title><rect x="1189.6" y="293" width="0.4" height="15.0" fill="rgb(231,152,53)" rx="2" ry="2" />
<text  x="1192.58" y="303.5" ></text>
</g>
<g >
<title>[[kernel.kallsyms]] (2,750,000 samples, 0.05%)</title><rect x="1178.5" y="117" width="0.6" height="15.0" fill="rgb(234,109,21)" rx="2" ry="2" />
<text  x="1181.54" y="127.5" ></text>
</g>
<g >
<title>[[kernel.kallsyms]] (3,000,000 samples, 0.05%)</title><rect x="17.9" y="133" width="0.6" height="15.0" fill="rgb(237,107,32)" rx="2" ry="2" />
<text  x="20.89" y="143.5" ></text>
</g>
<g >
<title>tar (37,000,000 samples, 0.65%)</title><rect x="10.1" y="341" width="7.7" height="15.0" fill="rgb(218,18,30)" rx="2" ry="2" />
<text  x="13.10" y="351.5" ></text>
</g>
<g >
<title>[[kernel.kallsyms]] (6,250,000 samples, 0.11%)</title><rect x="14.7" y="181" width="1.3" height="15.0" fill="rgb(244,8,6)" rx="2" ry="2" />
<text  x="17.72" y="191.5" ></text>
</g>
<g >
<title>[[kernel.kallsyms]] (3,500,000 samples, 0.06%)</title><rect x="17.8" y="245" width="0.7" height="15.0" fill="rgb(227,99,52)" rx="2" ry="2" />
<text  x="20.78" y="255.5" ></text>
</g>
<g >
<title>[[kernel.kallsyms]] (6,750,000 samples, 0.12%)</title><rect x="14.6" y="229" width="1.4" height="15.0" fill="rgb(241,214,34)" rx="2" ry="2" />
<text  x="17.62" y="239.5" ></text>
</g>
<g >
<title>[[kernel.kallsyms]] (4,000,000 samples, 0.07%)</title><rect x="17.0" y="197" width="0.8" height="15.0" fill="rgb(206,193,17)" rx="2" ry="2" />
<text  x="19.95" y="207.5" ></text>
</g>
<g >
<title>[[kernel.kallsyms]] (3,500,000 samples, 0.06%)</title><rect x="13.7" y="245" width="0.7" height="15.0" fill="rgb(211,36,19)" rx="2" ry="2" />
<text  x="16.68" y="255.5" ></text>
</g>
<g >
<title>[[kernel.kallsyms]] (1,000,000 samples, 0.02%)</title><rect x="12.0" y="293" width="0.2" height="15.0" fill="rgb(213,74,51)" rx="2" ry="2" />
<text  x="14.97" y="303.5" ></text>
</g>
<g >
<title>[unknown] (577,750,000 samples, 10.16%)</title><rect x="1064.9" y="309" width="119.9" height="15.0" fill="rgb(249,73,39)" rx="2" ry="2" />
<text  x="1067.92" y="319.5" >[unknown]</text>
</g>
<g >
<title>[[kernel.kallsyms]] (1,750,000 samples, 0.03%)</title><rect x="11.6" y="277" width="0.4" height="15.0" fill="rgb(235,83,36)" rx="2" ry="2" />
<text  x="14.61" y="287.5" ></text>
</g>
<g >
<title>[[kernel.kallsyms]] (1,250,000 samples, 0.02%)</title><rect x="13.3" y="261" width="0.3" height="15.0" fill="rgb(247,56,2)" rx="2" ry="2" />
<text  x="16.32" y="271.5" ></text>
</g>
<g >
<title>[[kernel.kallsyms]] (2,000,000 samples, 0.04%)</title><rect x="1189.6" y="197" width="0.4" height="15.0" fill="rgb(240,203,41)" rx="2" ry="2" />
<text  x="1192.58" y="207.5" ></text>
</g>
<g >
<title>[[kernel.kallsyms]] (750,000 samples, 0.01%)</title><rect x="12.0" y="149" width="0.2" height="15.0" fill="rgb(227,219,10)" rx="2" ry="2" />
<text  x="15.02" y="159.5" ></text>
</g>
<g >
<title>[[kernel.kallsyms]] (3,500,000 samples, 0.06%)</title><rect x="17.8" y="197" width="0.7" height="15.0" fill="rgb(245,211,17)" rx="2" ry="2" />
<text  x="20.78" y="207.5" ></text>
</g>
<g >
<title>[[kernel.kallsyms]] (7,500,000 samples, 0.13%)</title><rect x="14.5" y="261" width="1.5" height="15.0" fill="rgb(231,135,41)" rx="2" ry="2" />
<text  x="17.46" y="271.5" ></text>
</g>
<g >
<title>[[kernel.kallsyms]] (1,750,000 samples, 0.03%)</title><rect x="18.1" y="69" width="0.4" height="15.0" fill="rgb(238,95,15)" rx="2" ry="2" />
<text  x="21.14" y="79.5" ></text>
</g>
<g >
<title>write (2,250,000 samples, 0.04%)</title><rect x="1189.5" y="309" width="0.5" height="15.0" fill="rgb(233,54,42)" rx="2" ry="2" />
<text  x="1192.53" y="319.5" ></text>
</g>
<g >
<title>[[kernel.kallsyms]] (6,500,000 samples, 0.11%)</title><rect x="1177.8" y="261" width="1.3" height="15.0" fill="rgb(219,145,39)" rx="2" ry="2" />
<text  x="1180.76" y="271.5" ></text>
</g>
<g >
<title>[[kernel.kallsyms]] (1,250,000 samples, 0.02%)</title><rect x="13.3" y="277" width="0.3" height="15.0" fill="rgb(249,166,42)" rx="2" ry="2" />
<text  x="16.32" y="287.5" ></text>
</g>
<g >
<title>[[kernel.kallsyms]] (2,250,000 samples, 0.04%)</title><rect x="19.3" y="213" width="0.5" height="15.0" fill="rgb(227,128,14)" rx="2" ry="2" />
<text  x="22.34" y="223.5" ></text>
</g>
<g >
<title>[[kernel.kallsyms]] (1,000,000 samples, 0.02%)</title><rect x="11.8" y="165" width="0.2" height="15.0" fill="rgb(213,198,51)" rx="2" ry="2" />
<text  x="14.76" y="175.5" ></text>
</g>
<g >
<title>[[kernel.kallsyms]] (1,000,000 samples, 0.02%)</title><rect x="17.6" y="165" width="0.2" height="15.0" fill="rgb(214,67,13)" rx="2" ry="2" />
<text  x="20.57" y="175.5" ></text>
</g>
<g >
<title>[[kernel.kallsyms]] (24,750,000 samples, 0.44%)</title><rect x="1179.7" y="165" width="5.1" height="15.0" fill="rgb(249,227,51)" rx="2" ry="2" />
<text  x="1182.68" y="175.5" ></text>
</g>
<g >
<title>[[kernel.kallsyms]] (4,000,000 samples, 0.07%)</title><rect x="12.5" y="213" width="0.8" height="15.0" fill="rgb(207,115,9)" rx="2" ry="2" />
<text  x="15.49" y="223.5" ></text>
</g>
<g >
<title>[[kernel.kallsyms]] (27,000,000 samples, 0.47%)</title><rect x="1179.2" y="245" width="5.6" height="15.0" fill="rgb(219,214,21)" rx="2" ry="2" />
<text  x="1182.21" y="255.5" ></text>
</g>
<g >
<title>[[kernel.kallsyms]] (19,500,000 samples, 0.34%)</title><rect x="1030.5" y="277" width="4.0" height="15.0" fill="rgb(243,113,11)" rx="2" ry="2" />
<text  x="1033.48" y="287.5" ></text>
</g>
<g >
<title>[[kernel.kallsyms]] (7,750,000 samples, 0.14%)</title><rect x="14.4" y="277" width="1.6" height="15.0" fill="rgb(238,202,7)" rx="2" ry="2" />
<text  x="17.41" y="287.5" ></text>
</g>
<g >
<title>[[kernel.kallsyms]] (1,250,000 samples, 0.02%)</title><rect x="17.5" y="181" width="0.3" height="15.0" fill="rgb(245,110,11)" rx="2" ry="2" />
<text  x="20.52" y="191.5" ></text>
</g>
<g >
<title>[libc.so.6] (6,250,000 samples, 0.11%)</title><rect x="18.5" y="325" width="1.3" height="15.0" fill="rgb(231,30,5)" rx="2" ry="2" />
<text  x="21.51" y="335.5" ></text>
</g>
<g >
<title>[[kernel.kallsyms]] (3,500,000 samples, 0.06%)</title><rect x="1178.4" y="133" width="0.7" height="15.0" fill="rgb(216,100,46)" rx="2" ry="2" />
<text  x="1181.38" y="143.5" ></text>
</g>
<g >
<title>[[kernel.kallsyms]] (3,500,000 samples, 0.06%)</title><rect x="17.8" y="229" width="0.7" height="15.0" fill="rgb(252,139,37)" rx="2" ry="2" />
<text  x="20.78" y="239.5" ></text>
</g>
<g >
<title>[[kernel.kallsyms]] (750,000 samples, 0.01%)</title><rect x="13.4" y="181" width="0.2" height="15.0" fill="rgb(245,106,37)" rx="2" ry="2" />
<text  x="16.42" y="191.5" ></text>
</g>
<g >
<title>[[kernel.kallsyms]] (3,250,000 samples, 0.06%)</title><rect x="13.7" y="229" width="0.7" height="15.0" fill="rgb(219,123,14)" rx="2" ry="2" />
<text  x="16.74" y="239.5" ></text>
</g>
<g >
<title>[unknown] (2,000,000 samples, 0.04%)</title><rect x="11.2" y="309" width="0.4" height="15.0" fill="rgb(212,88,9)" rx="2" ry="2" />
<text  x="14.19" y="319.5" ></text>
</g>
<g >
<title>[[kernel.kallsyms]] (1,250,000 samples, 0.02%)</title><rect x="11.7" y="181" width="0.3" height="15.0" fill="rgb(254,144,8)" rx="2" ry="2" />
<text  x="14.71" y="191.5" ></text>
</g>
<g >
<title>[[kernel.kallsyms]] (500,000 samples, 0.01%)</title><rect x="13.5" y="133" width="0.1" height="15.0" fill="rgb(219,127,49)" rx="2" ry="2" />
<text  x="16.48" y="143.5" ></text>
</g>
<g >
<title>[[kernel.kallsyms]] (3,500,000 samples, 0.06%)</title><rect x="17.8" y="277" width="0.7" height="15.0" fill="rgb(248,27,33)" rx="2" ry="2" />
<text  x="20.78" y="287.5" ></text>
</g>
<g >
<title>[tar] (1,500,000 samples, 0.03%)</title><rect x="10.9" y="309" width="0.3" height="15.0" fill="rgb(239,214,18)" rx="2" ry="2" />
<text  x="13.88" y="319.5" ></text>
</g>
<g >
<title>[[kernel.kallsyms]] (1,750,000 samples, 0.03%)</title><rect x="18.1" y="85" width="0.4" height="15.0" fill="rgb(235,125,14)" rx="2" ry="2" />
<text  x="21.14" y="95.5" ></text>
</g>
<g >
<title>[[kernel.kallsyms]] (1,500,000 samples, 0.03%)</title><rect x="14.1" y="165" width="0.3" height="15.0" fill="rgb(228,173,52)" rx="2" ry="2" />
<text  x="17.10" y="175.5" ></text>
</g>
<g >
<title>read (7,750,000 samples, 0.14%)</title><rect x="14.4" y="309" width="1.6" height="15.0" fill="rgb(209,119,31)" rx="2" ry="2" />
<text  x="17.41" y="319.5" ></text>
</g>
<g >
<title>[[kernel.kallsyms]] (6,750,000 samples, 0.12%)</title><rect x="14.6" y="197" width="1.4" height="15.0" fill="rgb(222,138,6)" rx="2" ry="2" />
<text  x="17.62" y="207.5" ></text>
</g>
<g >
<title>[[kernel.kallsyms]] (1,250,000 samples, 0.02%)</title><rect x="13.3" y="245" width="0.3" height="15.0" fill="rgb(226,49,51)" rx="2" ry="2" />
<text  x="16.32" y="255.5" ></text>
</g>
<g >
<title>openat64 (4,000,000 samples, 0.07%)</title><rect x="13.6" y="309" width="0.8" height="15.0" fill="rgb(237,90,41)" rx="2" ry="2" />
<text  x="16.58" y="319.5" ></text>
</g>
<g >
<title>lzma_crc64 (22,500,000 samples, 0.40%)</title><rect x="1184.8" y="309" width="4.7" height="15.0" fill="rgb(215,3,38)" rx="2" ry="2" />
<text  x="1187.81" y="319.5" ></text>
</g>
<g >
<title>[[kernel.kallsyms]] (1,250,000 samples, 0.02%)</title><rect x="1189.7" y="101" width="0.3" height="15.0" fill="rgb(207,193,42)" rx="2" ry="2" />
<text  x="1192.74" y="111.5" ></text>
</g>
<g >
<title>[[kernel.kallsyms]] (3,750,000 samples, 0.07%)</title><rect x="1178.3" y="229" width="0.8" height="15.0" fill="rgb(245,60,44)" rx="2" ry="2" />
<text  x="1181.33" y="239.5" ></text>
</g>
<g >
<title>[[kernel.kallsyms]] (6,500,000 samples, 0.11%)</title><rect x="1177.8" y="277" width="1.3" height="15.0" fill="rgb(252,34,48)" rx="2" ry="2" />
<text  x="1180.76" y="287.5" ></text>
</g>
<g >
<title>[[kernel.kallsyms]] (2,000,000 samples, 0.04%)</title><rect x="18.1" y="117" width="0.4" height="15.0" fill="rgb(239,103,45)" rx="2" ry="2" />
<text  x="21.09" y="127.5" ></text>
</g>
<g >
<title>[[kernel.kallsyms]] (2,250,000 samples, 0.04%)</title><rect x="19.3" y="181" width="0.5" height="15.0" fill="rgb(253,189,37)" rx="2" ry="2" />
<text  x="22.34" y="191.5" ></text>
</g>
<g >
<title>[[kernel.kallsyms]] (2,000,000 samples, 0.04%)</title><rect x="1189.6" y="181" width="0.4" height="15.0" fill="rgb(210,29,8)" rx="2" ry="2" />
<text  x="1192.58" y="191.5" ></text>
</g>
<g >
<title>[[kernel.kallsyms]] (22,250,000 samples, 0.39%)</title><rect x="1180.2" y="149" width="4.6" height="15.0" fill="rgb(221,19,23)" rx="2" ry="2" />
<text  x="1183.20" y="159.5" ></text>
</g>
<g >
<title>[[kernel.kallsyms]] (3,500,000 samples, 0.06%)</title><rect x="13.7" y="277" width="0.7" height="15.0" fill="rgb(251,63,7)" rx="2" ry="2" />
<text  x="16.68" y="287.5" ></text>
</g>
<g >
<title>[[kernel.kallsyms]] (4,500,000 samples, 0.08%)</title><rect x="18.9" y="309" width="0.9" height="15.0" fill="rgb(222,150,11)" rx="2" ry="2" />
<text  x="21.87" y="319.5" ></text>
</g>
<g >
<title>[[kernel.kallsyms]] (2,000,000 samples, 0.04%)</title><rect x="1189.6" y="245" width="0.4" height="15.0" fill="rgb(235,225,7)" rx="2" ry="2" />
<text  x="1192.58" y="255.5" ></text>
</g>
<g >
<title>[[kernel.kallsyms]] (3,500,000 samples, 0.06%)</title><rect x="12.6" y="197" width="0.7" height="15.0" fill="rgb(233,216,23)" rx="2" ry="2" />
<text  x="15.59" y="207.5" ></text>
</g>
<g >
<title>[[kernel.kallsyms]] (1,500,000 samples, 0.03%)</title><rect x="15.7" y="133" width="0.3" height="15.0" fill="rgb(216,227,47)" rx="2" ry="2" />
<text  x="18.71" y="143.5" ></text>
</g>
<g >
<title>[[kernel.kallsyms]] (500,000 samples, 0.01%)</title><rect x="13.5" y="149" width="0.1" height="15.0" fill="rgb(212,188,19)" rx="2" ry="2" />
<text  x="16.48" y="159.5" ></text>
</g>
<g >
<title>[[kernel.kallsyms]] (3,500,000 samples, 0.06%)</title><rect x="17.8" y="309" width="0.7" height="15.0" fill="rgb(236,151,39)" rx="2" ry="2" />
<text  x="20.78" y="319.5" ></text>
</g>
<g >
<title>__close_nocancel (1,000,000 samples, 0.02%)</title><rect x="12.0" y="309" width="0.2" height="15.0" fill="rgb(248,123,17)" rx="2" ry="2" />
<text  x="14.97" y="319.5" ></text>
</g>
<g >
<title>__close (1,750,000 samples, 0.03%)</title><rect x="11.6" y="309" width="0.4" height="15.0" fill="rgb(241,175,0)" rx="2" ry="2" />
<text  x="14.61" y="319.5" ></text>
</g>
<g >
<title>[[kernel.kallsyms]] (5,000,000 samples, 0.09%)</title><rect x="12.3" y="261" width="1.0" height="15.0" fill="rgb(219,220,37)" rx="2" ry="2" />
<text  x="15.28" y="271.5" ></text>
</g>
<g >
<title>write (7,750,000 samples, 0.14%)</title><rect x="16.2" y="325" width="1.6" height="15.0" fill="rgb(231,163,16)" rx="2" ry="2" />
<text  x="19.17" y="335.5" ></text>
</g>
<g >
<title>[[kernel.kallsyms]] (1,000,000 samples, 0.02%)</title><rect x="12.0" y="245" width="0.2" height="15.0" fill="rgb(245,70,19)" rx="2" ry="2" />
<text  x="14.97" y="255.5" ></text>
</g>
<g >
<title>[[kernel.kallsyms]] (1,750,000 samples, 0.03%)</title><rect x="11.6" y="213" width="0.4" height="15.0" fill="rgb(225,108,9)" rx="2" ry="2" />
<text  x="14.61" y="223.5" ></text>
</g>
<g >
<title>[[kernel.kallsyms]] (5,000,000 samples, 0.09%)</title><rect x="12.3" y="293" width="1.0" height="15.0" fill="rgb(217,106,28)" rx="2" ry="2" />
<text  x="15.28" y="303.5" ></text>
</g>
<g >
<title>[[kernel.kallsyms]] (3,000,000 samples, 0.05%)</title><rect x="13.8" y="197" width="0.6" height="15.0" fill="rgb(246,127,11)" rx="2" ry="2" />
<text  x="16.79" y="207.5" ></text>
</g>
<g >
<title>[[kernel.kallsyms]] (21,500,000 samples, 0.38%)</title><rect x="1180.4" y="133" width="4.4" height="15.0" fill="rgb(205,11,44)" rx="2" ry="2" />
<text  x="1183.35" y="143.5" ></text>
</g>
<g >
<title>[[kernel.kallsyms]] (1,250,000 samples, 0.02%)</title><rect x="1189.7" y="85" width="0.3" height="15.0" fill="rgb(214,194,48)" rx="2" ry="2" />
<text  x="1192.74" y="95.5" ></text>
</g>
<g >
<title>[liblzma.so.5.2.5] (146,250,000 samples, 2.57%)</title><rect x="1034.6" y="309" width="30.3" height="15.0" fill="rgb(213,142,2)" rx="2" ry="2" />
<text  x="1037.58" y="319.5" >[l..</text>
</g>
<g >
<title>[[kernel.kallsyms]] (5,000,000 samples, 0.09%)</title><rect x="12.3" y="277" width="1.0" height="15.0" fill="rgb(252,51,9)" rx="2" ry="2" />
<text  x="15.28" y="287.5" ></text>
</g>
<g >
<title>[[kernel.kallsyms]] (26,000,000 samples, 0.46%)</title><rect x="1179.4" y="197" width="5.4" height="15.0" fill="rgb(231,83,51)" rx="2" ry="2" />
<text  x="1182.42" y="207.5" ></text>
</g>
<g >
<title>[[kernel.kallsyms]] (9,500,000 samples, 0.17%)</title><rect x="1032.6" y="197" width="1.9" height="15.0" fill="rgb(213,212,15)" rx="2" ry="2" />
<text  x="1035.55" y="207.5" ></text>
</g>
<g >
<title>[[kernel.kallsyms]] (27,250,000 samples, 0.48%)</title><rect x="1179.2" y="261" width="5.6" height="15.0" fill="rgb(239,42,9)" rx="2" ry="2" />
<text  x="1182.16" y="271.5" ></text>
</g>
<g >
<title>[[kernel.kallsyms]] (13,250,000 samples, 0.23%)</title><rect x="1031.8" y="261" width="2.7" height="15.0" fill="rgb(215,110,17)" rx="2" ry="2" />
<text  x="1034.77" y="271.5" ></text>
</g>
<g >
<title>[[kernel.kallsyms]] (3,250,000 samples, 0.06%)</title><rect x="17.8" y="165" width="0.7" height="15.0" fill="rgb(252,92,28)" rx="2" ry="2" />
<text  x="20.83" y="175.5" ></text>
</g>
<g >
<title>[[kernel.kallsyms]] (2,750,000 samples, 0.05%)</title><rect x="12.7" y="181" width="0.6" height="15.0" fill="rgb(218,73,40)" rx="2" ry="2" />
<text  x="15.75" y="191.5" ></text>
</g>
<g >
<title>[[kernel.kallsyms]] (6,750,000 samples, 0.12%)</title><rect x="14.6" y="245" width="1.4" height="15.0" fill="rgb(214,170,7)" rx="2" ry="2" />
<text  x="17.62" y="255.5" ></text>
</g>
<g >
<title>[libc.so.6] (500,000 samples, 0.01%)</title><rect x="10.8" y="309" width="0.1" height="15.0" fill="rgb(234,85,46)" rx="2" ry="2" />
<text  x="13.78" y="319.5" ></text>
</g>
<g >
<title>[[kernel.kallsyms]] (2,000,000 samples, 0.04%)</title><rect x="1189.6" y="149" width="0.4" height="15.0" fill="rgb(216,36,19)" rx="2" ry="2" />
<text  x="1192.58" y="159.5" ></text>
</g>
<g >
<title>[[kernel.kallsyms]] (4,750,000 samples, 0.08%)</title><rect x="12.3" y="245" width="1.0" height="15.0" fill="rgb(237,31,49)" rx="2" ry="2" />
<text  x="15.33" y="255.5" ></text>
</g>
<g >
<title>[[kernel.kallsyms]] (27,000,000 samples, 0.47%)</title><rect x="1179.2" y="229" width="5.6" height="15.0" fill="rgb(236,42,2)" rx="2" ry="2" />
<text  x="1182.21" y="239.5" ></text>
</g>
<g >
<title>sh (500,000 samples, 0.01%)</title><rect x="10.0" y="341" width="0.1" height="15.0" fill="rgb(220,97,10)" rx="2" ry="2" />
<text  x="13.00" y="351.5" ></text>
</g>
<g >
<title>[[kernel.kallsyms]] (2,000,000 samples, 0.04%)</title><rect x="19.4" y="165" width="0.4" height="15.0" fill="rgb(207,17,36)" rx="2" ry="2" />
<text  x="22.39" y="175.5" ></text>
</g>
<g >
<title>[liblzma.so.5.2.5] (4,890,000,000 samples, 85.99%)</title><rect x="19.8" y="325" width="1014.7" height="15.0" fill="rgb(239,213,8)" rx="2" ry="2" />
<text  x="22.80" y="335.5" >[liblzma.so.5.2.5]</text>
</g>
<g >
<title>[[kernel.kallsyms]] (5,750,000 samples, 0.10%)</title><rect x="14.8" y="149" width="1.2" height="15.0" fill="rgb(216,203,48)" rx="2" ry="2" />
<text  x="17.82" y="159.5" ></text>
</g>
<g >
<title>[[kernel.kallsyms]] (1,000,000 samples, 0.02%)</title><rect x="12.0" y="261" width="0.2" height="15.0" fill="rgb(248,21,38)" rx="2" ry="2" />
<text  x="14.97" y="271.5" ></text>
</g>
<g >
<title>[[kernel.kallsyms]] (6,750,000 samples, 0.12%)</title><rect x="16.4" y="261" width="1.4" height="15.0" fill="rgb(234,197,52)" rx="2" ry="2" />
<text  x="19.38" y="271.5" ></text>
</g>
<g >
<title>[[kernel.kallsyms]] (10,000,000 samples, 0.18%)</title><rect x="1032.4" y="229" width="2.1" height="15.0" fill="rgb(249,4,42)" rx="2" ry="2" />
<text  x="1035.45" y="239.5" ></text>
</g>
<g >
<title>[[kernel.kallsyms]] (7,000,000 samples, 0.12%)</title><rect x="16.3" y="277" width="1.5" height="15.0" fill="rgb(248,78,47)" rx="2" ry="2" />
<text  x="19.33" y="287.5" ></text>
</g>
<g >
<title>[[kernel.kallsyms]] (1,000,000 samples, 0.02%)</title><rect x="12.0" y="277" width="0.2" height="15.0" fill="rgb(235,182,29)" rx="2" ry="2" />
<text  x="14.97" y="287.5" ></text>
</g>
<g >
<title>[[kernel.kallsyms]] (3,500,000 samples, 0.06%)</title><rect x="1178.4" y="181" width="0.7" height="15.0" fill="rgb(254,216,13)" rx="2" ry="2" />
<text  x="1181.38" y="191.5" ></text>
</g>
<g >
<title>[[kernel.kallsyms]] (19,500,000 samples, 0.34%)</title><rect x="1030.5" y="293" width="4.0" height="15.0" fill="rgb(225,196,5)" rx="2" ry="2" />
<text  x="1033.48" y="303.5" ></text>
</g>
<g >
<title>[[kernel.kallsyms]] (2,000,000 samples, 0.04%)</title><rect x="1189.6" y="213" width="0.4" height="15.0" fill="rgb(219,50,48)" rx="2" ry="2" />
<text  x="1192.58" y="223.5" ></text>
</g>
<g >
<title>[[kernel.kallsyms]] (1,500,000 samples, 0.03%)</title><rect x="14.1" y="181" width="0.3" height="15.0" fill="rgb(241,33,29)" rx="2" ry="2" />
<text  x="17.10" y="191.5" ></text>
</g>
<g >
<title>[[kernel.kallsyms]] (500,000 samples, 0.01%)</title><rect x="1189.9" y="37" width="0.1" height="15.0" fill="rgb(245,78,8)" rx="2" ry="2" />
<text  x="1192.90" y="47.5" ></text>
</g>
<g >
<title>[[kernel.kallsyms]] (1,000,000 samples, 0.02%)</title><rect x="12.0" y="181" width="0.2" height="15.0" fill="rgb(222,215,4)" rx="2" ry="2" />
<text  x="14.97" y="191.5" ></text>
</g>
<g >
<title>[[kernel.kallsyms]] (1,000,000 samples, 0.02%)</title><rect x="13.4" y="197" width="0.2" height="15.0" fill="rgb(211,154,51)" rx="2" ry="2" />
<text  x="16.37" y="207.5" ></text>
</g>
<g >
<title>[[kernel.kallsyms]] (3,500,000 samples, 0.06%)</title><rect x="17.8" y="261" width="0.7" height="15.0" fill="rgb(235,186,0)" rx="2" ry="2" />
<text  x="20.78" y="271.5" ></text>
</g>
<g >
<title>[[kernel.kallsyms]] (500,000 samples, 0.01%)</title><rect x="1184.7" y="117" width="0.1" height="15.0" fill="rgb(243,65,20)" rx="2" ry="2" />
<text  x="1187.71" y="127.5" ></text>
</g>
<g >
<title>[[kernel.kallsyms]] (3,250,000 samples, 0.06%)</title><rect x="17.8" y="149" width="0.7" height="15.0" fill="rgb(223,90,43)" rx="2" ry="2" />
<text  x="20.83" y="159.5" ></text>
</g>
</g>
</svg>
